<?xml version="1.0" encoding="UTF-8" standalone="no"?>
<!-- Generator: Adobe Illustrator 22.1.0, SVG Export Plug-In . SVG Version: 6.00 Build 0)  -->

<svg
   version="1.1"
   id="Layer_1"
   x="0px"
   y="0px"
   viewBox="0 0 64 64.000001"
   xml:space="preserve"
   width="64"
   height="64"
   xmlns="http://www.w3.org/2000/svg"
   xmlns:svg="http://www.w3.org/2000/svg"
   xmlns:rdf="http://www.w3.org/1999/02/22-rdf-syntax-ns#"
   xmlns:cc="http://creativecommons.org/ns#"
   xmlns:dc="http://purl.org/dc/elements/1.1/"><defs
   id="defs29"><marker
   style="overflow:visible"
   id="marker10648"
   refX="0.0"
   refY="0.0"
   orient="auto"><g
     transform="scale(-1.2)"
     id="g10646"><path
       style="fill:none;fill-rule:evenodd;stroke:context-stroke;stroke-width:0.8;stroke-linecap:round"
       d="M -3.8048674,-3.9585227 L 0.54352094,0"
       id="path10634" /><path
       style="fill:none;fill-rule:evenodd;stroke:context-stroke;stroke-width:0.8;stroke-linecap:round"
       d="M -1.2866832,-3.9585227 L 3.0617053,0"
       id="path10636" /><path
       style="fill:none;fill-rule:evenodd;stroke:context-stroke;stroke-width:0.8;stroke-linecap:round"
       d="M 1.3053582,-3.9585227 L 5.6537466,0"
       id="path10638" /><path
       style="fill:none;fill-rule:evenodd;stroke:context-stroke;stroke-width:0.8;stroke-linecap:round"
       d="M -3.8048674,4.1775838 L 0.54352094,0.21974226"
       id="path10640" /><path
       style="fill:none;fill-rule:evenodd;stroke:context-stroke;stroke-width:0.8;stroke-linecap:round"
       d="M -1.2866832,4.1775838 L 3.0617053,0.21974226"
       id="path10642" /><path
       style="fill:none;fill-rule:evenodd;stroke:context-stroke;stroke-width:0.8;stroke-linecap:round"
       d="M 1.3053582,4.1775838 L 5.6537466,0.21974226"
       id="path10644" /></g></marker><marker
   style="overflow:visible"
   id="Tail"
   refX="0.0"
   refY="0.0"
   orient="auto"><g
     transform="scale(-1.2)"
     id="g10273"><path
       style="fill:none;fill-rule:evenodd;stroke:context-stroke;stroke-width:0.8;stroke-linecap:round"
       d="M -3.8048674,-3.9585227 L 0.54352094,0"
       id="path10261" /><path
       style="fill:none;fill-rule:evenodd;stroke:context-stroke;stroke-width:0.8;stroke-linecap:round"
       d="M -1.2866832,-3.9585227 L 3.0617053,0"
       id="path10263" /><path
       style="fill:none;fill-rule:evenodd;stroke:context-stroke;stroke-width:0.8;stroke-linecap:round"
       d="M 1.3053582,-3.9585227 L 5.6537466,0"
       id="path10265" /><path
       style="fill:none;fill-rule:evenodd;stroke:context-stroke;stroke-width:0.8;stroke-linecap:round"
       d="M -3.8048674,4.1775838 L 0.54352094,0.21974226"
       id="path10267" /><path
       style="fill:none;fill-rule:evenodd;stroke:context-stroke;stroke-width:0.8;stroke-linecap:round"
       d="M -1.2866832,4.1775838 L 3.0617053,0.21974226"
       id="path10269" /><path
       style="fill:none;fill-rule:evenodd;stroke:context-stroke;stroke-width:0.8;stroke-linecap:round"
       d="M 1.3053582,4.1775838 L 5.6537466,0.21974226"
       id="path10271" /></g></marker>
	

		
		
		
		
		
		
		
		
		
	</defs>
<style
   type="text/css"
   id="style2">
	.st0{fill:#009CDE;}
</style>
<title
   id="title4">Risorsa 15</title>

<metadata
   id="metadata846"><rdf:RDF><cc:Work
       rdf:about=""><dc:title>Risorsa 15</dc:title></cc:Work></rdf:RDF></metadata><path
   class="st0"
   d="M 42.100618,13.921195 C 37.691049,9.6246924 33.507612,5.4412553 32.263888,0.69248901 31.020163,5.4412553 26.836726,9.6246924 22.427158,13.921195 15.869337,20.479015 8.4069908,27.941362 8.4069908,39.134883 8.0677932,52.250523 18.582918,63.217912 31.698558,63.444044 44.814199,63.670176 55.781588,53.268116 56.007719,40.152476 V 39.134883 C 56.120785,27.941362 48.658438,20.479015 42.100618,13.921195 Z"
   id="path6"
   style="stroke-width:1.13066;fill:#ffffff" /><path
   style="fill:#009cde;stroke-width:0.0834178;fill-opacity:1"
   d="m 53.505969,38.147653 c 0,-0.618539 -0.501441,-1.12002 -1.120061,-1.12002 h -1.762366 l 1.677773,-1.677772 c 0.437451,-0.437452 0.437451,-1.146698 0,-1.584028 -0.437411,-0.437368 -1.146576,-0.43745 -1.583986,0 l -3.261882,3.261883 H 45.7975 l 1.677771,-1.677773 c 0.437452,-0.437452 0.437452,-1.146658 0,-1.584026 -0.437532,-0.437452 -1.146657,-0.437452 -1.584026,0 l -3.261881,3.261881 H 34.8551 l 5.497324,-5.497325 h 4.6129 c 0.618621,0 1.120061,-0.501398 1.120061,-1.120061 0,-0.618622 -0.50144,-1.12002 -1.120061,-1.12002 h -2.372736 l 1.172352,-1.172351 h 4.61294 c 0.61862,0 1.120019,-0.501439 1.120019,-1.120061 0,-0.618622 -0.501399,-1.120061 -1.120019,-1.120061 h -2.372736 l 1.246231,-1.246232 c 0.437451,-0.43745 0.437451,-1.146698 0,-1.584026 -0.437411,-0.437452 -1.146658,-0.437452 -1.583987,0 l -1.246272,1.246231 v -2.373065 c 0,-0.618621 -0.50144,-1.12002 -1.120061,-1.12002 -0.618621,0 -1.12006,0.501399 -1.12006,1.12002 v 4.612941 l -1.172352,1.172351 v -2.372654 c 0,-0.618621 -0.501399,-1.120061 -1.120021,-1.120061 -0.61862,0 -1.120061,0.50144 -1.120061,1.120061 v 4.6129 l -5.497323,5.497323 v -7.774262 l 3.261881,-3.261881 c 0.437451,-0.437452 0.437451,-1.1467 0,-1.584028 -0.437533,-0.437451 -1.146657,-0.437451 -1.584026,0 l -1.677855,1.677772 v -1.65803 l 3.261881,-3.261881 c 0.437451,-0.437411 0.437451,-1.146658 0,-1.583986 -0.437533,-0.437452 -1.146657,-0.437452 -1.584026,0 l -1.677855,1.677772 V 17.9128 c -1.65e-4,-0.618622 -0.501563,-1.120062 -1.120226,-1.120062 -0.618538,0 -1.12002,0.50144 -1.12002,1.120062 v 1.762364 l -1.677771,-1.677772 c -0.437452,-0.437452 -1.146576,-0.437452 -1.584028,0 -0.437451,0.43741 -0.437451,1.146658 0,1.583986 l 3.261882,3.261881 v 1.65803 l -1.677772,-1.677772 c -0.437452,-0.437451 -1.146576,-0.437451 -1.584027,0 -0.437452,0.437411 -0.437452,1.146657 0,1.584028 l 3.261881,3.261881 v 7.774262 l -5.497324,-5.497323 v -4.612983 c 0,-0.61862 -0.501399,-1.120061 -1.120062,-1.120061 -0.618621,0 -1.12002,0.501441 -1.12002,1.120061 v 2.372737 L 22.1214,26.533768 v -4.613022 c 0,-0.618622 -0.501439,-1.120021 -1.120061,-1.120021 -0.618621,0 -1.120061,0.501399 -1.120061,1.120021 v 2.372736 l -1.246436,-1.245986 c -0.437411,-0.437451 -1.146658,-0.437451 -1.583987,0 -0.437451,0.437411 -0.437451,1.146658 0,1.583987 l 1.246232,1.246272 h -2.3729 c -0.618622,0 -1.12002,0.50144 -1.12002,1.120061 0,0.618621 0.501398,1.12006 1.12002,1.12006 h 4.61294 l 1.172351,1.172352 h -2.372653 c -0.618622,0 -1.120061,0.501399 -1.120061,1.120021 0,0.61862 0.501439,1.120061 1.120061,1.120061 h 4.612899 l 5.497323,5.497323 H 21.672785 L 18.41078,33.765752 c -0.43741,-0.437451 -1.146576,-0.437451 -1.583986,0 -0.437451,0.437411 -0.437451,1.146657 0,1.583985 l 1.677773,1.677814 h -1.657948 l -3.261881,-3.261799 c -0.437412,-0.437451 -1.146576,-0.437451 -1.583986,0 -0.437452,0.437411 -0.437452,1.146657 0,1.583985 l 1.677771,1.677814 h -1.762364 c -0.618622,0 -1.120061,0.50148 -1.120061,1.12002 0,0.618663 0.501439,1.120061 1.120061,1.120061 h 1.762447 l -1.677772,1.677855 c -0.437452,0.43745 -0.437452,1.146657 0,1.584026 0.218766,0.218768 0.505338,0.327946 0.791952,0.327946 0.286489,0 0.573308,-0.109181 0.791952,-0.327946 l 3.261881,-3.261881 h 1.65803 l -1.677773,1.677855 c -0.437451,0.43745 -0.437451,1.146657 0,1.584026 0.218767,0.218768 0.505339,0.327946 0.791952,0.327946 0.286491,0 0.573349,-0.109181 0.791952,-0.327946 l 3.261923,-3.261881 h 7.774262 l -5.497324,5.497325 h -4.612899 c -0.618621,0 -1.120062,0.501398 -1.120062,1.120061 0,0.61862 0.501441,1.120019 1.120062,1.120019 h 2.372736 l -1.172351,1.172352 h -4.613022 c -0.618622,0 -1.12002,0.501439 -1.12002,1.120061 0,0.618622 0.501398,1.120061 1.12002,1.120061 h 2.372736 l -1.246231,1.246232 c -0.437452,0.43745 -0.437452,1.146574 0,1.584026 0.218766,0.218766 0.505338,0.327944 0.791952,0.327944 0.286489,0 0.573308,-0.10918 0.791952,-0.327944 l 1.246272,-1.246231 v 2.372695 c 0,0.618663 0.50144,1.120061 1.120061,1.120061 0.618621,0 1.120019,-0.501398 1.120019,-1.120061 v -4.612899 l 1.172352,-1.172352 v 2.372736 c 0,0.618621 0.50144,1.120061 1.120061,1.120061 0.618622,0 1.120062,-0.50144 1.120062,-1.120061 V 46.34882 l 5.497323,-5.497325 v 7.774263 l -3.261881,3.261881 c -0.437451,0.437452 -0.437451,1.146657 0,1.584028 0.437411,0.43745 1.146657,0.43745 1.583985,0 l 1.677814,-1.677773 v 1.657907 l -3.261881,3.261881 c -0.437452,0.437451 -0.437452,1.146658 0,1.584027 0.218766,0.218768 0.505338,0.327946 0.791952,0.327946 0.286901,0 0.573308,-0.109181 0.791952,-0.327946 l 1.677772,-1.677773 v 1.762366 c 0,0.618622 0.501522,1.120061 1.120061,1.120061 0.618621,0 1.12006,-0.501439 1.12006,-1.120061 v -1.762366 l 1.677856,1.677855 c 0.437451,0.437452 1.146656,0.437452 1.584027,0 0.437369,-0.437451 0.43745,-1.146575 0,-1.584027 l -3.261883,-3.261881 v -1.657989 l 1.677856,1.677854 c 0.218766,0.218767 0.50542,0.327945 0.791993,0.327945 0.286489,0 0.573307,-0.109181 0.791952,-0.327945 0.437451,-0.437452 0.437451,-1.146576 0,-1.584026 l -3.261883,-3.261883 v -7.77377 l 5.497325,5.497325 v 4.612899 c 0,0.618622 0.501398,1.120061 1.12002,1.120061 0.618622,0 1.120061,-0.501439 1.120061,-1.120061 v -2.372736 l 1.172351,1.172352 v 4.61294 c 0,0.61862 0.50144,1.120019 1.120061,1.120019 0.618622,0 1.12002,-0.501399 1.12002,-1.120019 v -2.372736 l 1.246273,1.24623 c 0.218766,0.218768 0.50542,0.327946 0.791993,0.327946 0.286901,0 0.573308,-0.109181 0.791952,-0.327946 0.437452,-0.43741 0.437452,-1.146575 0,-1.583986 l -1.246273,-1.246272 h 2.372737 c 0.618621,0 1.120061,-0.50144 1.120061,-1.120061 0,-0.618621 -0.50144,-1.120061 -1.120061,-1.120061 h -4.6129 l -1.172351,-1.172351 h 2.372737 c 0.61862,0 1.120018,-0.501399 1.120018,-1.12002 0,-0.618622 -0.501398,-1.120061 -1.120018,-1.120061 h -4.612941 l -5.497283,-5.497325 h 7.774262 l 3.261882,3.261882 c 0.218767,0.218767 0.505421,0.327945 0.791952,0.327945 0.28649,0 0.57335,-0.109181 0.791993,-0.327945 0.437451,-0.437411 0.437451,-1.146576 0,-1.583985 l -1.677854,-1.677897 h 1.657989 l 3.261881,3.261882 c 0.218766,0.218767 0.50542,0.327945 0.791993,0.327945 0.286489,0 0.573308,-0.109181 0.791952,-0.327945 0.43745,-0.437411 0.43745,-1.146576 0,-1.583985 l -1.677855,-1.677897 h 1.762365 c 0.619688,-4.92e-4 1.121211,-0.501891 1.121211,-1.120553 z"
   id="path2" /><g
   id="g4"
   transform="translate(243.91149,-253.29022)" /><g
   id="g6"
   transform="translate(243.91149,-253.29022)" /><g
   id="g8"
   transform="translate(243.91149,-253.29022)" /><g
   id="g10"
   transform="translate(243.91149,-253.29022)" /><g
   id="g12"
   transform="translate(243.91149,-253.29022)" /><g
   id="g14"
   transform="translate(243.91149,-253.29022)" /><g
   id="g16"
   transform="translate(243.91149,-253.29022)" /><g
   id="g18"
   transform="translate(243.91149,-253.29022)" /><g
   id="g20"
   transform="translate(243.91149,-253.29022)" /><g
   id="g22"
   transform="translate(243.91149,-253.29022)" /><g
   id="g24"
   transform="translate(243.91149,-253.29022)" /><g
   id="g26"
   transform="translate(243.91149,-253.29022)" /><g
   id="g28"
   transform="translate(243.91149,-253.29022)" /><g
   id="g30"
   transform="translate(243.91149,-253.29022)" /><g
   id="g32"
   transform="translate(243.91149,-253.29022)" /></svg>
